<svg width="206" height="73" viewBox="0 0 206 73" fill="none" xmlns="http://www.w3.org/2000/svg">
<path d="M59.5568 40.2727C59.5568 42.1761 59.196 43.7955 58.4744 45.1307C57.7585 46.4659 56.7813 47.4858 55.5426 48.1903C54.3097 48.8892 52.9233 49.2386 51.3835 49.2386C49.8324 49.2386 48.4403 48.8864 47.2074 48.1818C45.9744 47.4773 45 46.4574 44.2841 45.1222C43.5682 43.7869 43.2102 42.1705 43.2102 40.2727C43.2102 38.3693 43.5682 36.75 44.2841 35.4148C45 34.0795 45.9744 33.0625 47.2074 32.3636C48.4403 31.6591 49.8324 31.3068 51.3835 31.3068C52.9233 31.3068 54.3097 31.6591 55.5426 32.3636C56.7813 33.0625 57.7585 34.0795 58.4744 35.4148C59.196 36.75 59.5568 38.3693 59.5568 40.2727ZM55.8153 40.2727C55.8153 39.0398 55.6307 38 55.2614 37.1534C54.8977 36.3068 54.3835 35.6648 53.7188 35.2273C53.054 34.7898 52.2756 34.571 51.3835 34.571C50.4915 34.571 49.7131 34.7898 49.0483 35.2273C48.3835 35.6648 47.8665 36.3068 47.4972 37.1534C47.1335 38 46.9517 39.0398 46.9517 40.2727C46.9517 41.5057 47.1335 42.5455 47.4972 43.392C47.8665 44.2386 48.3835 44.8807 49.0483 45.3182C49.7131 45.7557 50.4915 45.9744 51.3835 45.9744C52.2756 45.9744 53.054 45.7557 53.7188 45.3182C54.3835 44.8807 54.8977 44.2386 55.2614 43.392C55.6307 42.5455 55.8153 41.5057 55.8153 40.2727ZM62.2905 49V31.5455H69.1768C70.5007 31.5455 71.6286 31.7983 72.5604 32.304C73.4922 32.804 74.2024 33.5 74.6911 34.392C75.1854 35.2784 75.4325 36.3011 75.4325 37.4602C75.4325 38.6193 75.1825 39.642 74.6825 40.5284C74.1825 41.4148 73.4581 42.1051 72.5092 42.5994C71.5661 43.0937 70.424 43.3409 69.0831 43.3409H64.6939V40.3835H68.4865C69.1967 40.3835 69.782 40.2614 70.2422 40.017C70.7081 39.767 71.0547 39.4233 71.282 38.9858C71.5149 38.5426 71.6314 38.0341 71.6314 37.4602C71.6314 36.8807 71.5149 36.375 71.282 35.9432C71.0547 35.5057 70.7081 35.1676 70.2422 34.929C69.7763 34.6847 69.1854 34.5625 68.4695 34.5625H65.9808V49H62.2905ZM89.3672 49H83.9808V31.5455H89.6058C91.299 31.5455 92.7479 31.8949 93.9524 32.5938C95.157 33.2869 96.0803 34.2841 96.7223 35.5852C97.3643 36.8807 97.6854 38.4318 97.6854 40.2386C97.6854 42.0568 97.3615 43.6222 96.7138 44.9347C96.0661 46.2415 95.1229 47.2472 93.8842 47.9517C92.6456 48.6506 91.1399 49 89.3672 49ZM86.0945 47.125H89.2308C90.674 47.125 91.87 46.8466 92.8189 46.2898C93.7678 45.733 94.4751 44.9403 94.9411 43.9119C95.407 42.8835 95.6399 41.6591 95.6399 40.2386C95.6399 38.8295 95.4098 37.6165 94.9496 36.5994C94.4893 35.5767 93.8018 34.7926 92.8871 34.2472C91.9723 33.696 90.8331 33.4205 89.4695 33.4205H86.0945V47.125ZM101.231 49V31.5455H111.765V33.4205H103.344V39.3182H111.219V41.1932H103.344V47.125H111.901V49H101.231ZM114.62 33.4205V31.5455H127.711V33.4205H122.222V49H120.109V33.4205H114.62ZM129.65 49H127.434L133.843 31.5455H136.025L142.434 49H140.218L135.002 34.3068H134.866L129.65 49ZM130.468 42.1818H139.4V44.0568H130.468V42.1818ZM147.266 31.5455V49H145.153V31.5455H147.266ZM151.504 49V31.5455H153.618V47.125H161.732V49H151.504ZM167.118 31.5455V49H165.004V31.5455H167.118ZM185.197 31.5455V49H183.151L173.64 35.2955H173.469V49H171.356V31.5455H173.401L182.947 45.2841H183.117V31.5455H185.197ZM201.358 37C201.17 36.4261 200.923 35.9119 200.616 35.4574C200.315 34.9972 199.955 34.6051 199.534 34.2812C199.119 33.9574 198.648 33.7102 198.119 33.5398C197.591 33.3693 197.011 33.2841 196.381 33.2841C195.347 33.2841 194.406 33.5511 193.56 34.0852C192.713 34.6193 192.04 35.4062 191.54 36.446C191.04 37.4858 190.79 38.7614 190.79 40.2727C190.79 41.7841 191.043 43.0597 191.548 44.0994C192.054 45.1392 192.739 45.9261 193.602 46.4602C194.466 46.9943 195.438 47.2614 196.517 47.2614C197.517 47.2614 198.398 47.0483 199.159 46.6222C199.926 46.1903 200.523 45.5824 200.949 44.7983C201.381 44.0085 201.597 43.0795 201.597 42.0114L202.244 42.1477H196.994V40.2727H203.642V42.1477C203.642 43.5852 203.335 44.8352 202.722 45.8977C202.114 46.9602 201.273 47.7841 200.199 48.3693C199.131 48.9489 197.903 49.2386 196.517 49.2386C194.972 49.2386 193.614 48.875 192.443 48.1477C191.278 47.4205 190.369 46.3864 189.716 45.0455C189.068 43.7045 188.744 42.1136 188.744 40.2727C188.744 38.892 188.929 37.6506 189.298 36.5483C189.673 35.4403 190.202 34.4972 190.884 33.7188C191.565 32.9403 192.372 32.3438 193.304 31.929C194.236 31.5142 195.261 31.3068 196.381 31.3068C197.301 31.3068 198.159 31.446 198.955 31.7244C199.756 31.9972 200.469 32.3864 201.094 32.892C201.724 33.392 202.25 33.9915 202.67 34.6903C203.091 35.3835 203.381 36.1534 203.54 37H201.358Z" fill="black"/>
<path d="M15.2324 0.0175582C15.2147 0.0182422 15.1969 0.0184998 15.1791 0.0192257C15.156 0.0201779 15.1329 0.0223977 15.1098 0.0235181C15.056 0.0264268 15.0018 0.0279207 14.9481 0.0313715C14.8999 0.0344749 14.8518 0.0386831 14.8037 0.0424599C14.7843 0.0439852 14.7649 0.0453002 14.7455 0.0469204C14.6277 0.0567727 14.5099 0.0685553 14.3924 0.0817583C14.3579 0.0856666 14.3234 0.0898904 14.289 0.0940513C14.208 0.103735 14.1272 0.114229 14.0464 0.125149C13.9609 0.136774 13.8754 0.148914 13.7901 0.161618C13.7405 0.169003 13.6908 0.176299 13.6413 0.184C13.6094 0.188955 13.5775 0.193331 13.5456 0.198397C13.5238 0.201863 13.5022 0.205871 13.4804 0.209364C13.294 0.239168 13.1079 0.270213 12.9218 0.301295C12.2663 0.410832 11.6123 0.537002 10.9605 0.66688C10.9114 0.676669 10.8624 0.687268 10.8133 0.697241C10.721 0.715988 10.6288 0.734809 10.5367 0.754298C10.4508 0.772493 10.3652 0.791577 10.2795 0.810503C10.2335 0.820644 10.1875 0.830244 10.1417 0.840622C10.1227 0.844909 10.1038 0.849633 10.0849 0.853957C10.0036 0.872535 9.92236 0.891824 9.84121 0.911213C9.76476 0.929519 9.68842 0.948271 9.61216 0.967397C9.53859 0.985828 9.46508 1.00451 9.39173 1.02381C9.31905 1.04292 9.24664 1.06308 9.17419 1.08306C9.11266 1.10004 9.05079 1.11574 8.98944 1.13339C8.96737 1.13973 8.94568 1.14728 8.92366 1.15375C8.86219 1.17182 8.80123 1.19156 8.74006 1.2106C8.66072 1.23518 8.5812 1.25914 8.50229 1.28523C8.49837 1.28653 8.49439 1.28764 8.49046 1.28894C8.35041 1.33541 8.21143 1.3851 8.07327 1.43704C8.05493 1.44394 8.03688 1.45158 8.01857 1.45857C7.89843 1.50434 7.77894 1.55191 7.66021 1.60138C7.60195 1.62572 7.54422 1.65134 7.4863 1.67653C7.40535 1.71169 7.3245 1.74711 7.24426 1.78394C7.21996 1.7951 7.1952 1.80516 7.17097 1.81647C7.13383 1.8338 7.09729 1.85253 7.06027 1.87014C7.02099 1.8888 6.98125 1.90648 6.94214 1.92548C6.90281 1.94459 6.86402 1.96488 6.82484 1.9843C6.75591 2.01846 6.687 2.05268 6.61849 2.08775C6.56423 2.11544 6.51032 2.14386 6.45631 2.17209C6.14652 2.33404 5.84099 2.50434 5.53997 2.68195C5.50599 2.70188 5.47168 2.72128 5.43779 2.74137C5.42985 2.74607 5.42199 2.75096 5.41405 2.75567C5.40415 2.7616 5.39405 2.76723 5.38416 2.77317C5.28243 2.83431 5.18037 2.89594 5.07835 2.958C5.07431 2.96046 5.07027 2.96292 5.06623 2.96539C4.59966 3.24947 4.1354 3.5477 3.71965 3.90078C3.58635 4.01398 3.46519 4.1363 3.35261 4.26511C3.20554 4.42907 3.07153 4.60556 2.95468 4.79905C2.8442 4.98198 2.74654 5.17246 2.65653 5.36683C2.65343 5.37354 2.65011 5.38009 2.64703 5.38681C2.64276 5.39612 2.63883 5.40559 2.6346 5.41491C2.57923 5.53682 2.52602 5.65979 2.47651 5.78436C2.30169 6.21649 2.15618 6.66199 2.03317 7.1117C2.02497 7.14163 2.01711 7.17163 2.00911 7.2016C1.99896 7.23965 1.98842 7.27764 1.97858 7.31574C1.92774 7.51237 1.8841 7.7104 1.84569 7.90934C1.84114 7.93269 1.83545 7.9558 1.83106 7.97917C1.82792 7.99593 1.82579 8.01283 1.82274 8.0296C1.80398 8.13268 1.78707 8.23601 1.7716 8.33952C1.76474 8.38514 1.75843 8.43085 1.75216 8.47657C1.73686 8.58899 1.72233 8.70152 1.71048 8.81435C1.70933 8.82515 1.70846 8.83597 1.70733 8.84678C1.69146 8.9993 1.67817 9.15218 1.66803 9.30543C1.62967 9.88569 1.62636 10.4692 1.63213 11.0505C1.63629 11.4695 1.64249 11.8883 1.64766 12.3072C1.65381 12.8032 1.65991 13.2991 1.66604 13.7951C1.66678 13.8612 1.66753 13.9274 1.66828 13.9936C1.67778 14.8346 1.68729 15.6757 1.6968 16.5167C1.70655 17.3872 1.7164 18.2578 1.72625 19.1282C1.7349 19.8952 1.74356 20.6622 1.75222 21.4293C1.75816 21.9612 1.76418 22.493 1.77021 23.0249C1.77098 23.0942 1.772 23.1635 1.77295 23.2328C1.77185 23.4051 1.77053 23.5773 1.76988 23.7495C1.7681 24.2246 1.7664 24.6996 1.76462 25.1746C1.76437 25.2491 1.76411 25.3235 1.76377 25.3979C1.76376 25.4006 1.76413 25.4042 1.76426 25.4072C1.76404 25.4433 1.76381 25.4794 1.76359 25.5155C1.76345 25.5159 1.76349 25.5165 1.76334 25.5169C1.7507 25.5516 1.69248 25.5696 1.65811 25.5898C1.58308 25.6336 1.50898 25.6792 1.43557 25.7259C1.40286 25.7467 1.37111 25.7691 1.33877 25.7906C1.28932 25.8226 1.24024 25.8554 1.19158 25.8891C1.17209 25.9027 1.15284 25.9166 1.13351 25.9304C1.10345 25.9518 1.0733 25.973 1.04354 25.9952C1.03591 26.0009 1.02827 26.0069 1.02064 26.0127C0.770459 26.2006 0.518926 26.4161 0.330223 26.6731C0.31992 26.6872 0.309594 26.7012 0.299686 26.7155C0.288191 26.7318 0.276907 26.7483 0.265973 26.765C0.242828 26.8004 0.221044 26.8366 0.20064 26.8737C0.199516 26.8757 0.198138 26.8776 0.197024 26.8797C0.193372 26.8864 0.190601 26.894 0.187073 26.9008C0.17361 26.9265 0.159955 26.9521 0.148144 26.9787C0.143856 26.9884 0.140539 26.9985 0.136473 27.0082C0.132443 27.0179 0.128735 27.0277 0.124916 27.0375C0.112479 27.0691 0.101394 27.1016 0.0908203 27.1345C0.0846715 27.1541 0.0780355 27.1736 0.0726381 27.1936C0.0712601 27.1984 0.0702607 27.2035 0.0689239 27.2084C0.000710324 27.4575 -0.0169642 27.7307 0.0163186 27.9807C0.0243385 28.0893 0.0454469 28.234 0.120352 28.2942C0.128346 28.301 0.136913 28.307 0.146579 28.3116C0.146917 28.3118 0.147206 28.312 0.147543 28.3122C0.156847 28.3163 0.166663 28.3196 0.177339 28.3213C0.1778 28.3214 0.178283 28.3214 0.178744 28.3214C0.178547 28.3214 0.17894 28.3215 0.178744 28.3214C0.179997 28.3216 0.181877 28.3216 0.183136 28.3218C0.192378 28.323 0.201879 28.3231 0.211394 28.3231C0.319189 28.323 0.442606 28.2506 0.533622 28.2121C0.935143 28.0422 1.33665 27.8735 1.73965 27.7078C1.73533 28.2256 1.73101 28.7433 1.72677 29.2611C1.71913 30.1788 1.71149 31.0966 1.70385 32.0142C1.70054 32.4097 1.69307 32.8055 1.69452 33.201C1.69473 33.2609 1.69495 33.3207 1.69517 33.3806C1.69556 33.6062 1.69676 33.8318 1.6974 34.0574C1.69927 34.7006 1.70105 35.3437 1.70291 35.9869C1.7047 36.622 1.70656 37.257 1.70835 37.8921C1.70911 38.161 1.70809 38.4301 1.71064 38.6989C1.71157 38.7952 1.71358 38.8915 1.71521 38.9878C1.71572 39.0699 1.71568 39.1519 1.7165 39.234C1.72032 39.6182 1.7288 40.0026 1.735 40.3869C1.749 41.2584 1.76292 42.1299 1.77692 43.0013C1.79127 43.8963 1.80561 44.7913 1.81995 45.6863C1.82716 46.1351 1.83572 46.584 1.84149 47.0329C1.84554 47.5946 1.84968 48.1562 1.85373 48.7179C1.85662 49.122 1.85586 49.5257 1.85314 49.9299C1.85067 50.2944 1.84532 50.6586 1.83906 51.0229C1.83088 51.4265 1.82192 51.8299 1.8068 52.2334C1.77387 53.1121 1.74102 53.9908 1.70809 54.8695C1.68993 55.3556 1.67176 55.8416 1.65657 56.3278C1.64551 56.6818 1.63469 57.0358 1.62498 57.3898C1.62493 57.3912 1.62488 57.3926 1.62483 57.394C1.61405 57.6977 1.60905 58.0012 1.60344 58.3051C1.60336 58.3096 1.60335 58.314 1.60326 58.3185C1.60253 58.3559 1.60133 58.3933 1.60064 58.4307C1.58944 59.0407 1.58392 59.6511 1.58783 60.2612C1.58928 60.4906 1.5924 60.7199 1.59644 60.9492C1.59726 61.0043 1.59771 61.0594 1.59861 61.1145C1.59917 61.1493 1.60076 61.1841 1.60144 61.219C1.60254 61.2746 1.60458 61.3302 1.60598 61.3858C1.61073 61.5663 1.61671 61.7468 1.62373 61.9272C1.62758 62.0264 1.63108 62.1255 1.6357 62.2246C1.63893 62.2941 1.64417 62.3636 1.64817 62.4331C1.64854 62.4395 1.64873 62.446 1.64911 62.4524C1.64968 62.4623 1.65051 62.4721 1.6511 62.4819C1.65814 62.599 1.66562 62.716 1.67475 62.8329C1.68488 62.9661 1.69616 63.0992 1.70881 63.2321C1.71955 63.3421 1.73084 63.4521 1.74347 63.5619C1.74715 63.5938 1.75099 63.6257 1.75485 63.6576C1.76007 63.7007 1.76462 63.7438 1.77022 63.7869C1.77481 63.8222 1.78047 63.8572 1.78535 63.8924C1.79288 63.9489 1.79934 64.0056 1.80739 64.0621C1.80918 64.0746 1.81136 64.0871 1.81319 64.0996C1.81332 64.1 1.81325 64.1004 1.81337 64.1008C1.86089 64.4245 1.92448 64.7451 1.98993 65.0654C1.99418 65.0867 1.99822 65.1079 2.00251 65.1292C2.05876 65.4077 2.11404 65.6862 2.16427 65.9656C2.17568 66.0346 2.18675 66.1035 2.19681 66.1726C2.21892 66.3696 2.25 66.5654 2.2894 66.7594C2.30007 66.8334 2.31083 66.9074 2.32124 66.9814C2.3801 67.4339 2.4298 67.8884 2.49377 68.3401C2.50454 68.4254 2.51701 68.5103 2.53064 68.595C2.53129 68.5992 2.53179 68.6033 2.53245 68.6075C2.53324 68.6125 2.53441 68.6174 2.53523 68.6224C2.5619 68.783 2.59489 68.9422 2.64211 69.0979C2.70295 69.2983 2.78395 69.4928 2.87747 69.6811C2.88312 69.6926 2.88892 69.704 2.89468 69.7154C2.91764 69.7606 2.94068 69.8056 2.96521 69.8498C2.99865 69.9108 3.03332 69.9712 3.06977 70.0307C3.07301 70.036 3.07593 70.0414 3.07919 70.0467C3.08047 70.0488 3.0819 70.0507 3.08318 70.0528C3.1131 70.1006 3.14365 70.148 3.17519 70.1945C3.17916 70.2004 3.18343 70.206 3.18743 70.2118C3.19016 70.2158 3.19303 70.2196 3.19577 70.2236C3.41524 70.5405 3.68046 70.8181 3.99226 71.0425C4.00253 71.0499 4.0132 71.0567 4.02355 71.064C4.02587 71.0656 4.02825 71.0672 4.03058 71.0688C4.07709 71.1018 4.12484 71.1333 4.1733 71.1641C4.17972 71.1682 4.18575 71.1727 4.19221 71.1767C4.20095 71.1822 4.21003 71.187 4.21881 71.1924C4.26498 71.2209 4.31162 71.2484 4.35875 71.2751C4.37089 71.2819 4.38292 71.289 4.39512 71.2957C4.45425 71.3284 4.51394 71.36 4.57436 71.3902C4.57516 71.3906 4.57593 71.391 4.57673 71.3914C4.63333 71.4196 4.69069 71.4463 4.74828 71.4725C4.77947 71.4866 4.81088 71.5002 4.84231 71.5137C4.86738 71.5246 4.89251 71.5353 4.91773 71.5458C4.95596 71.5617 4.99426 71.5774 5.03273 71.5926C5.0474 71.5983 5.06215 71.6039 5.07686 71.6096C5.1189 71.6258 5.16098 71.6419 5.20321 71.6573C5.21761 71.6625 5.23227 71.667 5.24671 71.6722C5.329 71.7016 5.4116 71.7301 5.49471 71.7569C5.51014 71.7619 5.52555 71.767 5.541 71.7719C5.63038 71.8002 5.71995 71.8277 5.8097 71.8536C5.81215 71.8543 5.81461 71.855 5.81706 71.8557C5.9301 71.8883 6.0436 71.9193 6.15721 71.95C6.60295 72.0704 7.0526 72.1769 7.50383 72.2729C7.56388 72.2857 7.62429 72.2969 7.68445 72.3092C7.73523 72.3198 7.78595 72.3307 7.83679 72.3411C7.93152 72.3604 8.02642 72.3789 8.12136 72.397C8.15097 72.4027 8.18058 72.4084 8.2102 72.414C8.4466 72.4585 8.6835 72.5002 8.92095 72.5383C8.92092 72.5381 8.92097 72.5384 8.92095 72.5383C8.96866 72.5459 9.01648 72.5531 9.06424 72.5605C9.09935 72.566 9.13441 72.5719 9.16954 72.5773C9.17852 72.5787 9.18756 72.5797 9.19655 72.5811C9.21769 72.5842 9.23877 72.5878 9.25992 72.5909C9.36949 72.6069 9.47916 72.6213 9.58882 72.6359C9.8869 72.6764 10.1854 72.7135 10.4846 72.744C10.6716 72.7631 10.8589 72.7797 11.0462 72.7955C11.0566 72.7964 11.0669 72.7976 11.0773 72.7985C11.1474 72.8047 11.2175 72.8099 11.2876 72.8156C11.4469 72.8282 11.6062 72.8402 11.7656 72.851C11.7872 72.8525 11.8087 72.8544 11.8303 72.8558C11.8403 72.8565 11.8504 72.8569 11.8605 72.8575C12.0809 72.8719 12.3014 72.8839 12.5219 72.8949C12.5722 72.8974 12.6224 72.9 12.6727 72.9023C12.7033 72.9038 12.7339 72.9054 12.7645 72.9068C12.79 72.908 12.8155 72.9089 12.841 72.9101C12.9957 72.9172 13.1504 72.9244 13.3051 72.9315C13.7029 72.9496 14.101 72.9621 14.4991 72.9721C14.5146 72.9725 14.5301 72.9728 14.5456 72.9732C14.5465 72.9732 14.5473 72.9733 14.5481 72.9733C14.5566 72.9735 14.5651 72.9737 14.5735 72.9739C15.0457 72.9859 15.5179 72.9986 15.9903 72.9999C16.4475 73.0013 16.905 72.9871 17.362 72.9756C17.3663 72.9755 17.3706 72.9754 17.3749 72.9753C17.377 72.9752 17.3791 72.9752 17.3812 72.9751C17.7838 72.9649 18.1868 72.9547 18.5891 72.9363C18.681 72.9321 18.773 72.9276 18.8649 72.9234C19.2661 72.9059 19.6673 72.886 20.0681 72.8619C20.0703 72.8617 20.0724 72.8616 20.0745 72.8614C20.0847 72.8608 20.0948 72.8604 20.1049 72.8598C20.134 72.858 20.1631 72.8555 20.1922 72.8536C20.3465 72.8439 20.5008 72.833 20.655 72.821C20.708 72.8169 20.7609 72.8128 20.8138 72.8085C21.0006 72.7931 21.1873 72.7767 21.3737 72.7584C21.3763 72.7582 21.3788 72.758 21.3814 72.7577C21.3905 72.7568 21.3996 72.7556 21.4088 72.7547C21.5374 72.7419 21.6658 72.7285 21.7942 72.7141C21.8525 72.7075 21.9107 72.7 21.969 72.6931C22.0231 72.6867 22.0771 72.6804 22.1311 72.6737C22.3343 72.6483 22.5373 72.6212 22.7399 72.591C22.7447 72.5903 22.7495 72.5898 22.7543 72.5891C22.8163 72.5798 22.8782 72.57 22.9401 72.5604C22.9864 72.5532 23.0327 72.5459 23.079 72.5385C23.079 72.5385 23.0791 72.5385 23.079 72.5385C23.0953 72.5359 23.1115 72.5335 23.1278 72.5309C23.4351 72.4812 23.7419 72.4268 24.0468 72.3649C24.4956 72.2739 24.944 72.1796 25.3881 72.0671C25.4002 72.064 25.4123 72.0608 25.4245 72.0578C25.8432 71.9544 26.2618 71.8436 26.6696 71.7018C26.6806 71.698 26.6917 71.6948 26.7027 71.691C26.7155 71.6865 26.7283 71.6816 26.7412 71.677C26.7584 71.6709 26.7757 71.6645 26.7929 71.6583C26.8507 71.6371 26.9083 71.6155 26.9656 71.5929C26.9683 71.5919 26.9711 71.5909 26.9738 71.5898C26.975 71.5894 26.9761 71.5889 26.9772 71.5884C27.169 71.5126 27.3575 71.4275 27.5398 71.3306C27.5434 71.3287 27.547 71.3267 27.5507 71.3247C27.6074 71.2944 27.6635 71.2628 27.7188 71.2301C27.7232 71.2274 27.7277 71.2249 27.7321 71.2222C27.7961 71.184 27.8595 71.1447 27.9214 71.1029C27.971 71.0694 28.0192 71.0342 28.0666 70.9983C28.0771 70.9904 28.0872 70.9822 28.0975 70.9742C28.1308 70.9486 28.1633 70.922 28.1957 70.8951C28.2207 70.8741 28.2459 70.8531 28.2703 70.8314C28.2768 70.8256 28.283 70.8196 28.2894 70.8138C28.3245 70.7823 28.3599 70.7511 28.3937 70.7179C28.4604 70.6522 28.5233 70.5823 28.5846 70.5107C28.5856 70.5095 28.5867 70.5082 28.5878 70.5069C28.6267 70.4613 28.6642 70.4141 28.7008 70.3663C28.7156 70.3471 28.7299 70.3276 28.7443 70.3081C28.7528 70.2964 28.7618 70.2851 28.7702 70.2733C28.7755 70.2658 28.7802 70.2579 28.7855 70.2504C28.8301 70.1875 28.8729 70.1234 28.9138 70.0579C28.9159 70.0545 28.9181 70.0512 28.9202 70.0478C28.9665 69.9731 29.0113 69.8974 29.0527 69.8198C29.0657 69.7956 29.0793 69.7717 29.0918 69.7473C29.0947 69.7416 29.0974 69.7359 29.1002 69.7302C29.1896 69.5553 29.2669 69.3743 29.3291 69.1888C29.4126 68.94 29.4582 68.6831 29.4933 68.4243C29.5189 68.2453 29.5396 68.0653 29.5604 67.8854C29.6067 67.5091 29.6567 67.1335 29.7109 66.7583C29.7111 66.7573 29.7112 66.7563 29.7114 66.7553C29.7299 66.653 29.7503 66.551 29.7668 66.4482C29.768 66.4405 29.7697 66.4329 29.7709 66.4253C29.7743 66.4029 29.7767 66.3805 29.7798 66.3581C29.7855 66.3165 29.7911 66.2749 29.7963 66.2332C29.804 66.1715 29.8133 66.11 29.8224 66.0485C29.8667 65.7942 29.9146 65.5406 29.9658 65.2872C29.9967 65.1345 30.0272 64.9819 30.057 64.8292C30.0812 64.7051 30.1043 64.5809 30.1265 64.4565C30.1391 64.3855 30.1521 64.3146 30.1635 64.2434C30.1663 64.226 30.1699 64.2087 30.1726 64.1913C30.1769 64.1638 30.1801 64.1361 30.1842 64.1085C30.1852 64.1055 30.1862 64.1025 30.1872 64.0995H30.1855C30.1872 64.0878 30.1887 64.0761 30.1904 64.0645C30.1976 64.0159 30.2057 63.9676 30.2123 63.9189C30.2163 63.8891 30.2196 63.8591 30.2235 63.8293C30.231 63.7708 30.2384 63.7122 30.2454 63.6537C30.2533 63.5881 30.2606 63.5224 30.2677 63.4568C30.2747 63.3923 30.282 63.3278 30.2883 63.2633C30.3005 63.1383 30.3118 63.0132 30.3215 62.8881C30.3231 62.8677 30.3244 62.8473 30.3259 62.8269C30.3323 62.7429 30.3387 62.6589 30.344 62.5749C30.3457 62.5488 30.3464 62.5226 30.348 62.4965C30.3493 62.4754 30.351 62.4543 30.3523 62.4331C30.3614 62.2735 30.369 62.1138 30.3757 61.9541C30.3792 61.8699 30.3819 61.7856 30.3849 61.7013C30.389 61.5812 30.3928 61.4611 30.3958 61.3409C30.3971 61.29 30.3993 61.2392 30.4005 61.1883C30.4012 61.1546 30.4014 61.1209 30.4021 61.0872C30.4029 61.0476 30.4033 61.0079 30.4041 60.9683C30.4061 60.8519 30.4081 60.7354 30.4094 60.619C30.4095 60.605 30.4094 60.591 30.4096 60.5771C30.4122 60.3524 30.4139 60.1278 30.4126 59.9033C30.4126 59.8988 30.4125 59.8944 30.4125 59.89C30.4112 59.656 30.4101 59.422 30.4082 59.1881C30.4073 59.0685 30.4077 58.9489 30.4061 58.8294C30.4047 58.7256 30.4021 58.6218 30.4004 58.5179C30.4 58.4997 30.4 58.4815 30.3997 58.4633C30.3936 58.1287 30.3896 57.794 30.3777 57.4596C30.3762 57.4161 30.3746 57.3727 30.3731 57.3292C30.3704 57.2377 30.3684 57.1461 30.3656 57.0545C30.3495 56.5396 30.3345 56.0246 30.3152 55.5096C30.2847 54.6941 30.2542 53.8785 30.2237 53.063C30.2172 52.8901 30.2101 52.7173 30.203 52.5444C30.1995 52.4481 30.1961 52.3517 30.1927 52.2554C30.1842 52.0146 30.1748 51.7739 30.1701 51.5329C30.1698 51.5161 30.1695 51.4992 30.1692 51.4823C30.1582 50.9005 30.1508 50.319 30.1461 49.7371C30.1445 49.4422 30.1434 49.1474 30.1455 48.8526C30.1489 48.3811 30.1523 47.9097 30.1557 47.4382C30.1577 47.1903 30.1597 46.9424 30.1635 46.6945C30.1639 46.6706 30.1641 46.6468 30.1645 46.6229C30.1745 45.9876 30.1845 45.3523 30.1945 44.717C30.1998 44.3814 30.205 44.0458 30.2103 43.7103C30.2132 43.531 30.216 43.3517 30.2188 43.1724C30.2296 42.4903 30.2404 41.808 30.2512 41.1259C30.2593 40.6055 30.2676 40.085 30.2758 39.5646C30.2776 39.4564 30.2795 39.3482 30.2814 39.24C30.282 39.2381 30.2827 39.2363 30.2832 39.2344L30.2815 39.2352C30.284 39.0941 30.286 38.953 30.2876 38.8118C30.2881 38.7772 30.2889 38.7426 30.2893 38.708C30.291 38.5577 30.2911 38.4075 30.2912 38.2572C30.2923 37.947 30.2928 37.6367 30.2934 37.3265C30.2946 36.9343 30.2957 36.5421 30.2968 36.1499C30.2985 35.5803 30.3001 35.0107 30.3017 34.4411C30.3019 34.3557 30.3022 34.2702 30.3024 34.1847C30.3033 33.8671 30.3053 33.5494 30.3051 33.2317C30.3051 33.2094 30.3054 33.1871 30.3053 33.1648C30.3051 33.0159 30.3037 32.8668 30.3022 32.7178C30.2997 32.4037 30.2967 32.0895 30.2939 31.7754C30.2904 31.3588 30.287 30.9422 30.2835 30.5256C30.2781 29.8816 30.2728 29.2376 30.2675 28.5936C30.265 28.2983 30.2625 28.003 30.2601 27.7077C30.6285 27.8592 30.9957 28.0132 31.3627 28.1683C31.4013 28.185 31.4399 28.2012 31.4786 28.2175C31.5693 28.2575 31.688 28.3243 31.7919 28.3229C31.7964 28.3228 31.8009 28.3226 31.8053 28.3223C31.8104 28.3219 31.8157 28.3224 31.8208 28.3216C31.8255 28.3209 31.8294 28.3189 31.8338 28.3177C31.8372 28.3168 31.8408 28.3172 31.8441 28.3161C31.8466 28.3152 31.8487 28.3136 31.8511 28.3126C31.8525 28.312 31.8537 28.3113 31.855 28.3106C31.8646 28.3059 31.8731 28.2997 31.881 28.2927C31.9612 28.228 31.9819 28.07 31.9879 27.9462C32.0183 27.6783 31.9914 27.3867 31.907 27.1282C31.9011 27.1101 31.8947 27.0924 31.8882 27.0747C31.8807 27.0535 31.8736 27.0322 31.865 27.0113C31.8495 26.9733 31.8324 26.9359 31.8133 26.8993C31.8113 26.8955 31.809 26.8918 31.807 26.888C31.8055 26.8853 31.8045 26.8823 31.8031 26.8797C31.7994 26.873 31.795 26.8667 31.7913 26.8601C31.7704 26.8228 31.7488 26.7859 31.7252 26.7502C31.7245 26.7491 31.7238 26.748 31.723 26.7468C31.695 26.7046 31.6648 26.6638 31.6335 26.6237C31.3325 26.2299 30.8886 25.9262 30.4846 25.6757C30.4158 25.633 30.3463 25.5916 30.276 25.5519C30.2332 25.5277 30.2384 25.5324 30.2364 25.4909C30.2357 25.3823 30.2351 25.2737 30.2344 25.1652C30.2347 25.14 30.235 25.1148 30.2349 25.0898C30.2331 24.6039 30.2313 24.1181 30.2295 23.6322C30.2291 23.5001 30.2282 23.368 30.2274 23.2358C30.2281 23.1784 30.2288 23.1209 30.2294 23.0635C30.2353 22.5447 30.2411 22.026 30.247 21.5073C30.2556 20.747 30.2641 19.9867 30.2727 19.2264C30.2826 18.3574 30.2923 17.4885 30.3022 16.6195C30.3118 15.7723 30.3213 14.925 30.3308 14.0778C30.3329 13.8953 30.335 13.7128 30.337 13.5304C30.3424 13.0966 30.3477 12.6628 30.3531 12.229C30.358 11.8325 30.3644 11.436 30.3678 11.0396C30.3693 10.8655 30.3694 10.6913 30.3684 10.5172C30.3683 10.517 30.3685 10.5173 30.3684 10.5172C30.3683 10.4864 30.3676 10.4557 30.3674 10.425C30.3667 10.3455 30.366 10.2661 30.3646 10.1866C30.3635 10.1176 30.3614 10.0487 30.3596 9.97971C30.3577 9.9083 30.357 9.83684 30.3544 9.76547C30.3529 9.72515 30.3498 9.68495 30.348 9.64465C30.3427 9.51965 30.3364 9.3947 30.3284 9.26984C30.3269 9.2463 30.3261 9.22271 30.3245 9.19917C30.3101 8.98983 30.2887 8.78125 30.2618 8.57347C30.2565 8.53274 30.2517 8.49195 30.2459 8.45129C30.2453 8.44708 30.2447 8.4429 30.2441 8.4387C30.2309 8.34678 30.2161 8.25513 30.2005 8.16361C30.1946 8.12814 30.1901 8.0925 30.1837 8.05708C30.1789 8.03057 30.1726 8.00439 30.1676 7.97794C30.1487 7.87807 30.1288 7.77844 30.107 7.67923C30.0984 7.63993 30.0891 7.60077 30.0801 7.56156C30.0533 7.44487 30.0252 7.32846 29.9944 7.21267C29.8682 6.73709 29.7172 6.26402 29.5331 5.80635C29.5302 5.79929 29.5276 5.79213 29.5248 5.78509C29.5234 5.78169 29.5219 5.77835 29.5206 5.77496C29.3941 5.45828 29.2504 5.14854 29.079 4.85542C28.9377 4.61383 28.772 4.39657 28.5859 4.19814C28.5579 4.16823 28.5296 4.13854 28.5006 4.10949C28.491 4.09976 28.4813 4.09014 28.4716 4.0805C28.3925 4.00181 28.3106 3.92515 28.2227 3.85295C27.7089 3.43074 27.132 3.07886 26.5622 2.7412C26.5349 2.72499 26.507 2.70946 26.4796 2.69334C26.3699 2.62882 26.2599 2.56465 26.1491 2.50178C26.1203 2.48549 26.0914 2.46953 26.0625 2.45337C25.9652 2.39872 25.8674 2.34505 25.7693 2.29194C25.7021 2.25577 25.6349 2.21989 25.5673 2.18448C25.5065 2.15248 25.4455 2.12111 25.3843 2.08981C25.3088 2.05116 25.2332 2.01266 25.1572 1.97499C25.1406 1.96675 25.1242 1.95806 25.1076 1.94987C25.0342 1.91373 24.9599 1.87961 24.8859 1.84476C24.8473 1.82659 24.8092 1.80717 24.7704 1.78932C24.7647 1.7867 24.7589 1.78444 24.7532 1.78183C24.6423 1.73102 24.5305 1.68215 24.4183 1.6344C24.4173 1.63402 24.4164 1.63366 24.4155 1.63327C24.1363 1.51455 23.8532 1.40514 23.566 1.30764C23.5072 1.28767 23.4477 1.27005 23.3886 1.25105C23.3786 1.24785 23.3687 1.24469 23.3587 1.24151C23.2395 1.20309 23.1194 1.16737 22.9991 1.13218C22.9663 1.12256 22.9338 1.11167 22.9008 1.10228C22.8539 1.08893 22.8066 1.07715 22.7596 1.06421C22.7399 1.0588 22.7202 1.05364 22.7005 1.0483C22.2309 0.920829 21.7555 0.812217 21.2786 0.715552C21.1918 0.697952 21.1051 0.679814 21.0182 0.662919C20.9899 0.657412 20.9615 0.652067 20.9332 0.646565C20.6957 0.599608 20.458 0.553624 20.2204 0.508566C20.1848 0.501822 20.1491 0.495605 20.1136 0.488903C20.0085 0.469036 19.9033 0.449605 19.7982 0.430179C19.7982 0.430247 19.7982 0.430111 19.7982 0.430179C19.6765 0.407708 19.5549 0.3853 19.4331 0.363612C19.3759 0.353429 19.3186 0.343834 19.2614 0.333855C19.1615 0.316429 19.0617 0.298618 18.9617 0.281906C18.8605 0.264995 18.7592 0.248347 18.6579 0.231914C18.6202 0.225791 18.5825 0.218806 18.5447 0.212788C18.5013 0.205882 18.4577 0.20018 18.4143 0.193526C18.2777 0.172343 18.1411 0.151792 18.0042 0.132971C17.9613 0.127064 17.9183 0.121472 17.8754 0.115871C17.7828 0.103804 17.6902 0.0926153 17.5974 0.0821897C17.5276 0.0743469 17.4577 0.0668934 17.3877 0.0601708C17.3383 0.0553947 17.2888 0.0507867 17.2394 0.0466155C17.141 0.038315 17.0424 0.0308878 16.9437 0.0252541C16.9324 0.024607 16.921 0.024444 16.9097 0.0238234C16.8987 0.0232552 16.8878 0.0220822 16.8768 0.0215509C16.8294 0.019247 16.7817 0.018337 16.7342 0.0164434C16.2351 -0.00573362 15.7318 -0.00559156 15.2324 0.0175582ZM21.0862 18.2571C21.0982 18.2603 21.1102 18.2637 21.1223 18.267C21.2263 18.2951 21.33 18.3243 21.4334 18.3546C21.4425 18.3572 21.4516 18.3599 21.4608 18.3626C21.6826 18.428 21.9032 18.498 22.1229 18.5708C22.4747 18.6883 22.823 18.8153 23.1698 18.9468C23.2316 18.9705 23.2932 18.9947 23.3549 19.0188C23.4362 19.0504 23.5174 19.0823 23.5985 19.1149C23.6729 19.1449 23.7473 19.1751 23.8214 19.2058C24.0236 19.2892 24.2247 19.3754 24.4245 19.4645C24.4484 19.4752 24.4724 19.4857 24.4963 19.4965C24.5547 19.5228 24.613 19.5495 24.6712 19.5763C24.7242 19.6007 24.777 19.6254 24.8297 19.6503C24.8707 19.6696 24.9117 19.689 24.9526 19.7086C25.0253 19.7436 25.0976 19.7792 25.1697 19.8153C25.1982 19.8295 25.2269 19.8434 25.2553 19.8578C25.3464 19.904 25.437 19.9513 25.5273 19.9994C25.5715 20.0229 25.6153 20.0471 25.6593 20.0712C25.7135 20.1007 25.7675 20.1305 25.8213 20.1607C25.8524 20.1782 25.8833 20.196 25.9143 20.2137C25.9232 20.2188 25.9321 20.2238 25.9411 20.229C26.0131 20.2704 26.0847 20.3127 26.156 20.3556C26.1768 20.3681 26.1977 20.3803 26.2184 20.3929C26.2461 20.4098 26.2736 20.4273 26.3013 20.4444C26.6036 20.6315 26.8999 20.829 27.1885 21.0371C27.3186 21.131 27.4399 21.2411 27.5727 21.3302C27.602 21.3499 27.6526 21.3599 27.6665 21.3832L27.4436 22.5507L26.8749 25.5299L26.7412 26.2305L26.4595 27.7064L25.6632 31.8777C25.6633 31.8775 25.6632 31.8779 25.6632 31.8777C25.0521 31.6779 24.4408 31.4834 23.8162 31.3312C23.1851 31.1773 22.5462 31.062 21.906 30.955C21.2896 30.8519 20.6692 30.7692 20.0485 30.697C19.4052 30.6222 18.7608 30.5629 18.1146 30.5222C17.4945 30.483 16.8728 30.4665 16.2515 30.4635C15.6207 30.4604 14.989 30.4656 14.3588 30.497C13.6976 30.5299 13.0388 30.5811 12.3803 30.649C11.7697 30.712 11.1594 30.7898 10.5526 30.8836C9.90741 30.9834 9.26263 31.0892 8.62457 31.2296C8.02113 31.3624 7.42362 31.5231 6.83589 31.7153C6.66962 31.7696 6.50327 31.824 6.33701 31.8783C6.33692 31.8779 6.33681 31.8774 6.33671 31.877L5.54066 27.7066L5.25898 26.231L5.12517 25.53L4.69722 23.2881L4.55646 22.5507L4.33123 21.3709C4.33119 21.3709 4.33127 21.3708 4.33123 21.3709C4.33573 21.3653 4.37511 21.3593 4.38249 21.3561C4.4021 21.3477 4.41983 21.3357 4.43724 21.3234C4.58067 21.2217 4.7157 21.1064 4.85863 21.0034C4.88804 20.9821 4.91799 20.9616 4.9477 20.9408C5.00127 20.9034 5.05493 20.8661 5.10886 20.8294C5.14398 20.8055 5.17903 20.7816 5.21424 20.7579C5.27996 20.7136 5.34584 20.6699 5.41229 20.6267C5.51278 20.5615 5.61376 20.4971 5.71569 20.4343C5.83053 20.3635 5.94615 20.294 6.06298 20.2265C6.07044 20.2223 6.07797 20.2181 6.08544 20.2138C6.1065 20.2018 6.12767 20.1899 6.14879 20.178C6.21675 20.1395 6.28496 20.1014 6.35353 20.064C6.38371 20.0476 6.41394 20.0313 6.44423 20.015C6.6125 19.9252 6.7826 19.8393 6.95383 19.7558C7.01802 19.7245 7.08221 19.6931 7.14675 19.6626C7.23503 19.6207 7.32341 19.5793 7.41231 19.5388C7.49995 19.4988 7.58802 19.4598 7.67613 19.4208C7.70996 19.4059 7.74357 19.3905 7.77746 19.3756C7.80669 19.3629 7.8362 19.3506 7.86549 19.3379C8.13198 19.2236 8.4007 19.1144 8.67076 19.009C8.73479 18.9841 8.79857 18.9584 8.86278 18.934C8.88187 18.927 8.90097 18.92 8.92 18.9128C9.07183 18.8554 9.22382 18.7986 9.37642 18.7435C9.38272 18.7413 9.38901 18.739 9.3953 18.7367C9.56058 18.6773 9.72638 18.6194 9.89273 18.5632C10.1049 18.4915 10.3179 18.4226 10.5327 18.359C11 18.2204 11.4728 18.107 11.9522 18.0212C12.0308 18.0071 12.1097 17.9945 12.1885 17.9817C12.5332 17.927 12.8792 17.8828 13.2258 17.8421C13.2336 17.8413 13.2414 17.8404 13.2492 17.8395C13.3113 17.8323 13.3736 17.8267 13.4358 17.8199C13.9271 17.7698 14.4188 17.7271 14.9117 17.696C15.0914 17.6849 15.2713 17.6755 15.4513 17.6686C15.8202 17.6546 16.1876 17.6525 16.5564 17.6637C16.5965 17.6651 16.6366 17.6661 16.6767 17.6678C16.714 17.6693 16.7512 17.6709 16.7885 17.6727C16.8764 17.6767 16.9643 17.6814 17.0521 17.6868C17.0795 17.6884 17.1069 17.69 17.1344 17.6917C17.1944 17.6956 17.2545 17.6998 17.3146 17.7041C17.4325 17.7124 17.5503 17.7213 17.6681 17.7308C17.7012 17.7335 17.7344 17.736 17.7675 17.7388C17.8482 17.7453 17.9288 17.7531 18.0095 17.7602C18.2027 17.7771 18.3957 17.7963 18.5885 17.8175C18.5901 17.8177 18.5918 17.8178 18.5935 17.818C18.8195 17.8428 19.0451 17.8704 19.2705 17.9002C19.3118 17.9058 19.3532 17.9111 19.3945 17.917C19.4125 17.9195 19.4304 17.9224 19.4484 17.925C19.5808 17.9438 19.7128 17.9647 19.8447 17.9872C19.8996 17.9967 19.9547 18.0058 20.0095 18.0159C20.045 18.0224 20.0804 18.0292 20.1158 18.036C20.1953 18.0511 20.2747 18.067 20.354 18.0835C20.379 18.0887 20.404 18.0939 20.4289 18.0993C20.5234 18.1195 20.6177 18.1407 20.7118 18.163C20.7248 18.1661 20.7379 18.1689 20.7509 18.1721C20.8631 18.1989 20.9748 18.2273 21.0862 18.2571ZM28.2699 38.8547L26.0314 40.1936C26.0406 39.9451 26.0494 39.6967 26.0585 39.4482C26.0726 39.0597 26.0867 38.6712 26.1008 38.2827C26.1094 38.0519 26.1184 37.8211 26.1279 37.5903C26.1324 37.4877 26.1365 37.3851 26.1416 37.2826C26.1522 37.0497 26.1645 36.8168 26.1766 36.5839C26.1953 36.2047 26.2181 35.8258 26.2405 35.4468C26.2515 35.2696 26.2628 35.0923 26.2754 34.9152C26.2758 34.9092 26.2762 34.9033 26.2766 34.8973C26.284 34.7928 26.2918 34.6883 26.3001 34.5838C26.3139 34.409 26.3297 34.2344 26.3482 34.06C26.3488 34.0547 26.3493 34.0493 26.3498 34.044C26.3558 33.9881 26.3626 33.9324 26.3693 33.8767C26.3846 33.7463 26.4031 33.6163 26.4214 33.4863C26.4715 33.1424 26.5294 32.8001 26.5914 32.4581C26.5947 32.4398 26.598 32.4216 26.6014 32.4034C26.6292 32.2515 26.6584 32.0998 26.6882 31.9483C26.6987 31.8951 26.7092 31.8419 26.7199 31.7887C26.7497 31.6399 26.7798 31.4912 26.8107 31.3427C26.8452 31.1772 26.8789 31.0115 26.9131 30.846C26.9283 30.7719 26.9444 30.6981 26.9599 30.6241C26.9869 30.4947 27.0138 30.3652 27.0423 30.2361C27.1374 29.8062 27.2325 29.3763 27.3276 28.9465C27.3348 28.9138 27.3422 28.8812 27.3494 28.8485C27.4338 28.4678 27.5177 28.087 27.6025 27.7064L28.5022 27.7064L28.2699 38.8547ZM27.991 52.2435L27.9137 55.9538C27.9137 55.9537 27.9137 55.9539 27.9137 55.9538C27.8826 55.8799 27.8515 55.8063 27.8204 55.7325C27.8162 55.7223 27.8121 55.7116 27.8079 55.7015C27.7699 55.6119 27.7319 55.5223 27.694 55.4326C27.5434 55.0749 27.3929 54.717 27.2414 54.3596C26.9548 53.6832 26.6683 53.0068 26.3817 52.3304C26.3086 52.1578 26.2348 51.9859 26.1681 51.8116C26.0435 51.4809 25.958 51.1452 25.9164 50.7916C25.9064 50.707 25.8989 50.6221 25.8911 50.5372C25.8911 50.5269 25.891 50.5167 25.891 50.5064C25.8905 50.3567 25.8899 50.207 25.8894 50.0574C25.8895 50.0429 25.8899 50.0283 25.89 50.0139C25.8933 49.2797 25.8966 48.5454 25.8999 47.8112C25.9009 47.5954 25.9019 47.3795 25.9029 47.1636C25.9064 46.6771 25.9099 46.1906 25.9134 45.7042C25.914 45.6291 25.9145 45.554 25.915 45.479C25.9183 45.2975 25.9222 45.116 25.9252 44.9345C25.9287 44.7245 25.9322 44.5145 25.9358 44.3045C25.9406 44.0671 25.9454 43.8297 25.9503 43.5924C25.9589 43.173 25.9674 42.7538 25.9759 42.3345C25.9793 42.3309 25.9837 42.3276 25.9904 42.3246L28.2076 41.8455L27.991 52.2435ZM4.08636 55.954L4.00906 52.2435L3.79244 41.8455L6.01307 42.3253C6.01788 42.3279 6.02126 42.331 6.02391 42.3347C6.03142 42.7033 6.03891 43.0719 6.04643 43.4404C6.05284 43.7546 6.05925 44.0689 6.06567 44.3831C6.07146 44.7298 6.07725 45.0766 6.08307 45.4234C6.08457 45.5143 6.08498 45.6052 6.08629 45.6961C6.09009 46.2208 6.09389 46.7455 6.0977 47.2702C6.09939 47.6447 6.10108 48.0193 6.10276 48.3938C6.10525 48.9497 6.10779 49.5056 6.11029 50.0615C6.10977 50.2044 6.10925 50.3474 6.10872 50.4903C6.10852 50.496 6.10809 50.5017 6.10786 50.5074C6.10677 50.5349 6.10537 50.5624 6.1037 50.5899C6.09747 50.6572 6.09158 50.7245 6.08367 50.7916C6.03843 51.1757 5.9438 51.539 5.80079 51.8973C5.73169 52.0705 5.65868 52.2423 5.58538 52.4139C5.56152 52.4691 5.53775 52.5242 5.51443 52.5793C5.44489 52.7436 5.37537 52.9079 5.30584 53.0722C5.14806 53.4448 4.99029 53.8173 4.83248 54.1898C4.61912 54.6937 4.40566 55.1976 4.19221 55.7015C4.18476 55.7191 4.1776 55.7378 4.17027 55.7557C4.1423 55.8218 4.11432 55.8879 4.08636 55.954ZM3.49788 27.7067L4.39745 27.7067C4.47103 28.037 4.54388 28.3675 4.6171 28.6979C4.72807 29.1989 4.83911 29.6999 4.95009 30.2008C4.95247 30.2117 4.95491 30.2226 4.95728 30.2336C4.9911 30.3863 5.02285 30.5395 5.05476 30.6926C5.0723 30.7764 5.0902 30.8601 5.10755 30.9439C5.14517 31.1271 5.18247 31.3104 5.22063 31.4935C5.30567 31.9016 5.38172 32.3115 5.45649 32.7216C5.47437 32.8197 5.49126 32.918 5.50755 33.0164C5.50928 33.0269 5.51115 33.0373 5.51286 33.0478C5.52839 33.1427 5.54315 33.2378 5.55726 33.333C5.55886 33.3438 5.56062 33.3545 5.56221 33.3653C5.59325 33.5768 5.62089 33.7888 5.64524 34.0012C5.65688 34.1026 5.6674 34.2042 5.67707 34.3059C5.70169 34.5672 5.72028 34.829 5.73761 35.0908C5.74063 35.1377 5.74384 35.1845 5.74675 35.2314C5.77304 35.6553 5.7989 36.0794 5.81952 36.5036C5.82861 36.6815 5.83784 36.8594 5.84675 37.0373C5.85382 37.1784 5.86078 37.3196 5.86643 37.4608C5.86704 37.4741 5.86763 37.4874 5.86822 37.5006C5.88027 37.8101 5.89231 38.1196 5.90435 38.429C5.91483 38.7172 5.9253 39.0053 5.93575 39.2935C5.94667 39.5935 5.95757 39.8935 5.96847 40.1935L3.73013 38.8547L3.49788 27.7067ZM24.1637 69.1757C23.9514 69.388 23.6213 69.474 23.3442 69.5554C22.9444 69.6729 22.5353 69.754 22.1261 69.8287C21.9872 69.854 21.8479 69.8771 21.7086 69.9005C21.445 69.9448 21.181 69.9873 20.9168 70.0272C20.4991 70.0904 20.0803 70.1484 19.6607 70.1979C19.4428 70.2236 19.2245 70.2466 19.0057 70.2633C18.8377 70.276 18.6653 70.2891 18.4974 70.2679C18.3304 70.247 18.1707 70.184 18.0087 70.1406C17.8491 70.0977 17.6876 70.0691 17.5226 70.0605C17.1088 70.039 16.6889 70.0645 16.2743 70.0636C15.8673 70.0627 15.4602 70.0686 15.0532 70.063C14.6876 70.058 14.3379 70.0465 13.9814 70.1432C13.8194 70.1871 13.6595 70.2498 13.492 70.2692C13.3194 70.2892 13.1426 70.2752 12.9701 70.2614C12.5491 70.2277 12.1299 70.1743 11.7114 70.1171C11.2695 70.0567 10.8292 69.987 10.3887 69.9168C10.3557 69.9116 10.3228 69.9059 10.2898 69.9005C9.9372 69.8431 9.58535 69.7789 9.23624 69.7026C8.86102 69.6206 8.47001 69.5294 8.12076 69.3636C7.91936 69.2681 7.73808 69.1322 7.68978 68.9001C7.66195 68.7662 7.6706 68.626 7.6841 68.491C7.70472 68.2847 7.73757 68.0792 7.77168 67.8748C7.83551 67.4919 7.90273 67.0845 8.0605 66.7281C8.13307 66.5642 8.24238 66.4313 8.35459 66.2941C8.35796 66.2962 8.36193 66.2984 8.3653 66.3005C8.70942 66.5103 9.08634 66.6462 9.47156 66.7543C9.47517 66.7553 9.47868 66.7565 9.48228 66.7575C9.48384 66.7579 9.48542 66.7583 9.48698 66.7587C9.49585 66.7612 9.50466 66.7638 9.51354 66.7663C9.63788 66.8005 9.76289 66.8319 9.8882 66.862C9.93384 66.873 9.97961 66.8833 10.0253 66.8938C10.1115 66.9136 10.1979 66.9326 10.2845 66.9509C10.3377 66.9621 10.3908 66.9735 10.4441 66.9842C10.5625 67.008 10.681 67.0308 10.7998 67.0525C10.8125 67.0548 10.8253 67.0568 10.8381 67.0591C10.8391 67.0593 10.8402 67.0595 10.8413 67.0597C10.9901 67.086 11.1392 67.1107 11.2884 67.1342C11.2909 67.1346 11.2934 67.1351 11.2959 67.1355C11.2989 67.136 11.3019 67.1363 11.3049 67.1368C11.423 67.1554 11.5413 67.1725 11.6596 67.1894C11.7674 67.2046 11.8753 67.2194 11.9833 67.2336C12.0111 67.2373 12.0389 67.2411 12.0667 67.2448C12.0736 67.2457 12.0805 67.2464 12.0873 67.2472C12.2295 67.2657 12.3721 67.2822 12.5146 67.2988C12.6761 67.3172 12.8377 67.3346 12.9995 67.3507C13.0522 67.3559 13.105 67.3618 13.1578 67.3668C13.1702 67.368 13.1827 67.3689 13.1952 67.3701C13.2356 67.3738 13.2759 67.3786 13.3163 67.3821C13.3799 67.3876 13.4436 67.3919 13.5071 67.3972C13.5877 67.4039 13.6682 67.4102 13.7488 67.4164C14.0489 67.4396 14.3491 67.4606 14.6497 67.475C14.7141 67.478 14.7784 67.479 14.8428 67.4815C14.9111 67.4846 14.9795 67.4882 15.0479 67.491C15.0302 67.6339 15.0369 67.7809 15.0516 67.9232C15.0573 67.9781 15.0651 68.0344 15.0842 68.0864C15.0906 68.1039 15.0983 68.1209 15.1076 68.1373C15.1954 68.291 15.3831 68.2997 15.5388 68.3032C15.8752 68.3106 16.2205 68.3238 16.5563 68.2989C16.7021 68.288 16.8467 68.2515 16.91 68.1012C16.94 68.0301 16.9465 67.9505 16.9527 67.8744C16.9632 67.7472 16.9679 67.618 16.9522 67.491C16.9522 67.4912 16.9522 67.4908 16.9522 67.491C17.0264 67.488 17.1004 67.4842 17.1746 67.4813C17.204 67.4802 17.2333 67.4799 17.2627 67.4787C17.2986 67.4771 17.3344 67.475 17.3702 67.4732C17.3752 67.473 17.3802 67.4729 17.3852 67.4726C17.3912 67.4723 17.3972 67.4719 17.4032 67.4716C17.5573 67.4638 17.7114 67.4549 17.8653 67.4448C17.8668 67.4447 17.8682 67.4446 17.8697 67.4445C18.022 67.4345 18.1742 67.4231 18.3263 67.411C18.3421 67.4097 18.3579 67.4084 18.3737 67.4072C18.4431 67.4016 18.5126 67.3962 18.582 67.3904C18.8257 67.3702 19.0693 67.3453 19.3126 67.3183C19.3129 67.3183 19.3132 67.3182 19.3135 67.3182C19.4397 67.3046 19.5657 67.2898 19.6917 67.2747C19.7262 67.2704 19.7608 67.2671 19.7952 67.2626C19.7969 67.2624 19.7987 67.2622 19.8005 67.262C19.8105 67.2607 19.8204 67.2593 19.8304 67.258C20.1527 67.218 20.4743 67.1723 20.7949 67.1205C20.9157 67.1014 21.0364 67.0814 21.157 67.0602C21.2155 67.05 21.2739 67.0387 21.3323 67.0279C21.3593 67.0229 21.3862 67.0181 21.4131 67.013C21.4421 67.0075 21.4711 67.0018 21.5002 66.9962C21.8633 66.9264 22.226 66.8444 22.5807 66.7394C22.6581 66.717 22.7353 66.6936 22.8118 66.6685C22.8283 66.6631 22.8447 66.6576 22.861 66.652C22.8883 66.6427 22.9159 66.6341 22.943 66.6245C22.9514 66.6215 22.9595 66.6179 22.9679 66.6149C23.1692 66.542 23.3656 66.4561 23.553 66.3488C23.5838 66.3312 23.614 66.3125 23.6443 66.2939H23.6454C23.7624 66.437 23.8746 66.5752 23.9479 66.7474C24.0223 66.9223 24.0703 67.1092 24.1134 67.2942C24.2056 67.6902 24.2782 68.0974 24.317 68.5026C24.3396 68.7388 24.3419 68.9975 24.1637 69.1757ZM27.4393 64.0995C27.4363 64.1635 27.4341 64.2275 27.4307 64.2915C27.4169 64.5501 27.4136 64.823 27.3563 65.0763C27.3467 65.1188 27.3328 65.1985 27.2766 65.1946C27.2214 65.1907 27.1761 65.0995 27.1526 65.058C27.0214 64.8249 26.9406 64.5581 26.8555 64.3053C26.8325 64.237 26.811 64.1681 26.7888 64.0995C26.6313 63.6141 26.4912 63.1223 26.3623 62.6285C26.2191 62.0799 26.0704 61.5212 26.0612 60.9504C26.0507 60.2962 26.085 59.6396 26.0996 58.9857C26.1118 58.4366 26.1307 57.8869 26.1648 57.3387C26.1738 57.2155 26.1803 57.0908 26.2015 56.9689C26.2111 56.914 26.232 56.8208 26.2715 56.9151C26.2722 56.9168 26.2728 56.9187 26.2735 56.9205C26.3202 57.0337 26.3453 57.1611 26.3767 57.2789C26.4572 57.5805 26.5311 57.8838 26.6061 58.1869C26.7409 58.7327 26.869 59.2823 26.9792 59.8338C27.1028 60.4525 27.2134 61.0735 27.333 61.693C27.3848 61.9615 27.4461 62.2203 27.4584 62.4947C27.4721 62.803 27.467 63.1124 27.4618 63.4209C27.4585 63.6112 27.452 63.8015 27.4441 63.9917C27.4426 64.0276 27.4409 64.0635 27.4393 64.0995ZM4.54162 62.4947C4.55385 62.2203 4.61521 61.9615 4.66698 61.693C4.78657 61.0735 4.89715 60.4525 5.02081 59.8338C5.13098 59.2823 5.25905 58.7327 5.39391 58.1869C5.46885 57.8838 5.54278 57.5805 5.62324 57.2789C5.65465 57.1611 5.6798 57.0337 5.7265 56.9205C5.72723 56.9187 5.72774 56.9168 5.72848 56.9151C5.76803 56.8208 5.7889 56.914 5.7985 56.9689C5.8198 57.0908 5.82625 57.2155 5.83516 57.3387C5.86928 57.8869 5.8882 58.4366 5.90042 58.9857C5.91502 59.6396 5.94931 60.2962 5.93879 60.9504C5.92962 61.5212 5.78084 62.0799 5.63766 62.6285C5.50878 63.1223 5.36861 63.6142 5.21117 64.0996C5.18894 64.1682 5.16746 64.237 5.14447 64.3053C5.05935 64.5581 4.97855 64.8249 4.84734 65.058C4.82391 65.0995 4.77859 65.1907 4.72334 65.1946C4.66716 65.1985 4.65332 65.1188 4.64373 65.0763C4.58636 64.823 4.58305 64.5501 4.5693 64.2915C4.56591 64.2276 4.56365 64.1636 4.56073 64.0996C4.55908 64.0636 4.55739 64.0277 4.5559 63.9917C4.548 63.8015 4.54146 63.6112 4.53823 63.4209C4.53297 63.1124 4.52788 62.803 4.54162 62.4947ZM2.5753 8.33029C2.58447 7.92946 2.64227 7.52888 2.73919 7.14046C2.83671 6.74962 2.97828 6.36982 3.15091 6.00691C3.30928 5.67416 3.49286 5.34839 3.74238 5.07683C4.01966 4.77502 4.34345 4.51087 4.66129 4.25482C4.98771 3.99197 5.32643 3.74704 5.68425 3.53012C6.04377 3.31217 6.41797 3.11954 6.79294 2.93072C6.97083 2.84118 7.14932 2.75077 7.33213 2.67183C7.42498 2.63167 7.5292 2.58409 7.63258 2.58203C7.85226 2.57756 7.75503 2.79484 7.68145 2.91435C7.49177 3.09913 7.32457 3.31417 7.1618 3.50995C6.85958 3.87355 6.56473 4.24405 6.27489 4.61791C5.96434 5.01848 5.6515 5.41768 5.34605 5.82222C5.03592 6.23288 4.72597 6.64353 4.42374 7.06022C4.1087 7.49458 3.80248 7.9348 3.49677 8.37597C3.47124 8.41282 3.44161 8.44593 3.42333 8.48412L3.40908 8.50275C3.36045 8.57987 3.30817 8.65459 3.2536 8.72751C3.15498 8.85919 3.0483 8.99622 2.917 9.09637C2.85691 9.14221 2.77798 9.18918 2.70847 9.13506C2.65931 9.09679 2.63439 9.03103 2.61908 8.96633C2.6123 8.93766 2.6072 8.90915 2.60306 8.88341C2.57377 8.70165 2.57114 8.51394 2.5753 8.33029ZM24.425 2.58883C24.5951 2.62012 24.7576 2.71044 24.9119 2.78542C25.1469 2.89961 25.3799 3.01742 25.6118 3.1379C26.0289 3.35465 26.4381 3.58889 26.8222 3.86192C27.219 4.1439 27.5959 4.45623 27.9572 4.78346C28.2857 5.08105 28.5406 5.40777 28.7473 5.803C28.9614 6.21245 29.1331 6.64767 29.2494 7.09607C29.3662 7.54646 29.4313 8.01624 29.4255 8.4824C29.4246 8.55202 29.4301 8.79488 29.3834 8.97004L29.3805 8.96544C29.3814 8.96705 29.3824 8.96844 29.3834 8.97004C29.3498 9.09595 29.2892 9.18726 29.1791 9.15255C29.0416 9.10929 28.9243 8.95003 28.8377 8.84445C28.7489 8.73616 28.6696 8.62085 28.5909 8.50502C28.5568 8.45478 28.5226 8.40435 28.488 8.35442C28.1827 7.91377 27.8764 7.47442 27.5617 7.04057C27.2616 6.62681 26.9535 6.21917 26.6455 5.81136C26.3415 5.40872 26.0303 5.01125 25.721 4.61283C25.4257 4.2325 25.1254 3.85572 24.8177 3.48565C24.6625 3.29893 24.5024 3.09738 24.3227 2.92134C24.2782 2.8532 24.2189 2.75382 24.2253 2.67424C24.2331 2.57711 24.3536 2.57565 24.425 2.58883Z" fill="black"/>
</svg>
